<svg width="518" height="475" viewBox="0 0 518 475" fill="none" xmlns="http://www.w3.org/2000/svg">
<path d="M83 52V394H182V151.549C182 148.874 182.185 145.965 184 144C185.25 142.647 186.254 142.087 188 141.5C189.492 140.999 190.426 141.039 192 141C195.272 140.919 198.231 142.755 200.523 145.092L248 193.5L284.5 151L192.5 52H83Z" fill="white"/>
<path d="M422 173L279 339L332 394.5H422V173Z" fill="white"/>
<path d="M211 270V186L254.5 226L369 95L329.5 70L449.5 39L458 168.5L421 136.5L264 327L211 270Z" fill="#39F3A6"/>
</svg>
